<svg width="294" height="43" viewBox="0 0 294 43" fill="none" xmlns="http://www.w3.org/2000/svg">
<rect width="293.33" height="42" transform="translate(0 0.449951)" fill="white"/>
<path d="M1.57227 8.49683H2.85059L6.11133 16.6111L9.36523 8.49683H10.6504L6.60352 18.45H5.60547L1.57227 8.49683ZM1.15527 8.49683H2.2832L2.46777 14.5671V18.45H1.15527V8.49683ZM9.93262 8.49683H11.0605V18.45H9.74805V14.5671L9.93262 8.49683ZM14.5705 11.0535V18.45H13.2991V11.0535H14.5705ZM13.2034 9.09155C13.2034 8.88647 13.2649 8.7133 13.3879 8.57202C13.5155 8.43075 13.7024 8.36011 13.9485 8.36011C14.19 8.36011 14.3746 8.43075 14.5022 8.57202C14.6343 8.7133 14.7004 8.88647 14.7004 9.09155C14.7004 9.28752 14.6343 9.45614 14.5022 9.59741C14.3746 9.73413 14.19 9.80249 13.9485 9.80249C13.7024 9.80249 13.5155 9.73413 13.3879 9.59741C13.2649 9.45614 13.2034 9.28752 13.2034 9.09155ZM19.5708 17.5476C19.8716 17.5476 20.1496 17.4861 20.4048 17.363C20.66 17.24 20.8696 17.0714 21.0337 16.8572C21.1977 16.6384 21.2912 16.3901 21.3139 16.1121H22.5171C22.4943 16.5496 22.3462 16.9574 22.0727 17.3357C21.8039 17.7094 21.4507 18.0125 21.0132 18.2449C20.5757 18.4727 20.0949 18.5867 19.5708 18.5867C19.0148 18.5867 18.5294 18.4887 18.1147 18.2927C17.7046 18.0968 17.3628 17.8279 17.0893 17.4861C16.8205 17.1443 16.6177 16.7524 16.4809 16.3103C16.3488 15.8637 16.2827 15.392 16.2827 14.8953V14.6082C16.2827 14.1114 16.3488 13.642 16.4809 13.2C16.6177 12.7533 16.8205 12.3591 17.0893 12.0173C17.3628 11.6755 17.7046 11.4067 18.1147 11.2107C18.5294 11.0147 19.0148 10.9167 19.5708 10.9167C20.1496 10.9167 20.6554 11.0352 21.0884 11.2722C21.5213 11.5046 21.8608 11.8236 22.1069 12.2292C22.3576 12.6303 22.4943 13.086 22.5171 13.5964H21.3139C21.2912 13.2911 21.2046 13.0154 21.0542 12.7693C20.9083 12.5232 20.7078 12.3272 20.4526 12.1814C20.202 12.031 19.908 11.9558 19.5708 11.9558C19.1834 11.9558 18.8576 12.0333 18.5932 12.1882C18.3335 12.3386 18.1261 12.5437 17.9712 12.8035C17.8208 13.0587 17.7114 13.3435 17.643 13.658C17.5792 13.9679 17.5473 14.2846 17.5473 14.6082V14.8953C17.5473 15.2188 17.5792 15.5378 17.643 15.8523C17.7068 16.1667 17.8139 16.4516 17.9643 16.7068C18.1193 16.962 18.3266 17.1671 18.5864 17.322C18.8507 17.4724 19.1789 17.5476 19.5708 17.5476ZM25.2136 12.2156V18.45H23.9489V11.0535H25.1794L25.2136 12.2156ZM27.5241 11.0125L27.5173 12.1882C27.4125 12.1654 27.3122 12.1518 27.2165 12.1472C27.1254 12.1381 27.0206 12.1335 26.9021 12.1335C26.6104 12.1335 26.3529 12.1791 26.1296 12.2703C25.9063 12.3614 25.7172 12.489 25.5622 12.6531C25.4073 12.8171 25.2842 13.0131 25.1931 13.241C25.1065 13.4643 25.0495 13.7104 25.0222 13.9792L24.6667 14.1843C24.6667 13.7377 24.71 13.3184 24.7966 12.9265C24.8877 12.5346 25.0267 12.1882 25.2136 11.8875C25.4004 11.5821 25.6374 11.3451 25.9245 11.1765C26.2162 11.0033 26.5626 10.9167 26.9636 10.9167C27.0547 10.9167 27.1596 10.9281 27.278 10.9509C27.3965 10.9692 27.4786 10.9897 27.5241 11.0125ZM28.2314 14.8337V14.6765C28.2314 14.1433 28.3089 13.6488 28.4638 13.1931C28.6188 12.7328 28.8421 12.3341 29.1338 11.9968C29.4254 11.655 29.7786 11.3907 30.1933 11.2039C30.608 11.0125 31.0729 10.9167 31.5879 10.9167C32.1074 10.9167 32.5745 11.0125 32.9892 11.2039C33.4085 11.3907 33.764 11.655 34.0556 11.9968C34.3518 12.3341 34.5774 12.7328 34.7324 13.1931C34.8873 13.6488 34.9648 14.1433 34.9648 14.6765V14.8337C34.9648 15.3669 34.8873 15.8614 34.7324 16.3171C34.5774 16.7729 34.3518 17.1716 34.0556 17.5134C33.764 17.8507 33.4108 18.115 32.9961 18.3064C32.5859 18.4932 32.1211 18.5867 31.6015 18.5867C31.082 18.5867 30.6149 18.4932 30.2002 18.3064C29.7854 18.115 29.43 17.8507 29.1338 17.5134C28.8421 17.1716 28.6188 16.7729 28.4638 16.3171C28.3089 15.8614 28.2314 15.3669 28.2314 14.8337ZM29.4961 14.6765V14.8337C29.4961 15.2029 29.5393 15.5515 29.6259 15.8796C29.7125 16.2032 29.8424 16.4903 30.0156 16.741C30.1933 16.9916 30.4143 17.1899 30.6787 17.3357C30.943 17.477 31.2506 17.5476 31.6015 17.5476C31.9479 17.5476 32.2509 17.477 32.5107 17.3357C32.775 17.1899 32.9938 16.9916 33.167 16.741C33.3401 16.4903 33.47 16.2032 33.5566 15.8796C33.6477 15.5515 33.6933 15.2029 33.6933 14.8337V14.6765C33.6933 14.3119 33.6477 13.9679 33.5566 13.6443C33.47 13.3162 33.3379 13.0268 33.1601 12.7761C32.9869 12.5209 32.7682 12.3204 32.5039 12.1746C32.2441 12.0287 31.9388 11.9558 31.5879 11.9558C31.2415 11.9558 30.9362 12.0287 30.6718 12.1746C30.4121 12.3204 30.1933 12.5209 30.0156 12.7761C29.8424 13.0268 29.7125 13.3162 29.6259 13.6443C29.5393 13.9679 29.4961 14.3119 29.4961 14.6765ZM38.4338 17.1375L40.3342 11.0535H41.1682L41.0041 12.2634L39.0695 18.45H38.2561L38.4338 17.1375ZM37.1555 11.0535L38.7756 17.2058L38.8918 18.45H38.0373L35.8908 11.0535H37.1555ZM42.9865 17.158L44.5314 11.0535H45.7893L43.6428 18.45H42.7951L42.9865 17.158ZM41.3527 11.0535L43.2121 17.0349L43.424 18.45H42.6174L40.6281 12.2498L40.4641 11.0535H41.3527ZM51.4594 17.1853V13.3777C51.4594 13.086 51.4002 12.8331 51.2817 12.6189C51.1677 12.4001 50.9946 12.2315 50.7621 12.113C50.5297 11.9945 50.2426 11.9353 49.9008 11.9353C49.5818 11.9353 49.3015 11.99 49.06 12.0994C48.823 12.2087 48.6362 12.3523 48.4995 12.53C48.3673 12.7078 48.3012 12.8992 48.3012 13.1042H47.0366C47.0366 12.8399 47.1049 12.5779 47.2416 12.3181C47.3784 12.0583 47.5743 11.8236 47.8295 11.614C48.0893 11.3998 48.3992 11.2312 48.7592 11.1082C49.1238 10.9806 49.5294 10.9167 49.976 10.9167C50.5138 10.9167 50.9877 11.0079 51.3979 11.1902C51.8126 11.3725 52.1362 11.6482 52.3686 12.0173C52.6056 12.3819 52.7241 12.8399 52.7241 13.3914V16.8367C52.7241 17.0828 52.7446 17.3448 52.7856 17.6228C52.8312 17.9008 52.8972 18.1401 52.9838 18.3406V18.45H51.6645C51.6007 18.3041 51.5506 18.1104 51.5141 17.8689C51.4776 17.6228 51.4594 17.3949 51.4594 17.1853ZM51.6782 13.9656L51.6918 14.8542H50.4135C50.0535 14.8542 49.7322 14.8839 49.4496 14.9431C49.1671 14.9978 48.9301 15.0821 48.7387 15.196C48.5473 15.31 48.4015 15.4535 48.3012 15.6267C48.201 15.7953 48.1508 15.9936 48.1508 16.2214C48.1508 16.4539 48.2032 16.6658 48.308 16.8572C48.4129 17.0486 48.5701 17.2013 48.7797 17.3152C48.9939 17.4246 49.256 17.4792 49.5659 17.4792C49.9532 17.4792 50.295 17.3972 50.5913 17.2332C50.8875 17.0691 51.1222 16.8686 51.2954 16.6316C51.4731 16.3946 51.5688 16.1645 51.5825 15.9412L52.1225 16.5496C52.0906 16.741 52.004 16.9529 51.8627 17.1853C51.7215 17.4177 51.5323 17.641 51.2954 17.8552C51.0629 18.0649 50.7849 18.2403 50.4614 18.3816C50.1424 18.5183 49.7823 18.5867 49.3813 18.5867C48.88 18.5867 48.4402 18.4887 48.062 18.2927C47.6883 18.0968 47.3966 17.8347 47.187 17.5066C46.9819 17.1739 46.8793 16.8025 46.8793 16.3923C46.8793 15.9958 46.9568 15.6472 47.1118 15.3464C47.2667 15.0411 47.49 14.7882 47.7817 14.5876C48.0733 14.3826 48.4243 14.2276 48.8344 14.1228C49.2446 14.018 49.7026 13.9656 50.2084 13.9656H51.6782ZM56.863 17.3083L58.8864 11.0535H60.1784L57.5192 18.45H56.6716L56.863 17.3083ZM55.1745 11.0535L57.2595 17.3425L57.403 18.45H56.5554L53.8757 11.0535H55.1745ZM64.3788 18.5867C63.8639 18.5867 63.3967 18.5001 62.9775 18.3269C62.5627 18.1492 62.205 17.9008 61.9042 17.5818C61.608 17.2628 61.3801 16.8845 61.2206 16.447C61.0611 16.0095 60.9814 15.531 60.9814 15.0115V14.7244C60.9814 14.1228 61.0702 13.5873 61.248 13.1179C61.4257 12.644 61.6672 12.2429 61.9726 11.9148C62.2779 11.5867 62.6243 11.3383 63.0116 11.1697C63.399 11.0011 63.8001 10.9167 64.2148 10.9167C64.7434 10.9167 65.1991 11.0079 65.582 11.1902C65.9693 11.3725 66.2861 11.6277 66.5322 11.9558C66.7782 12.2794 66.9605 12.6622 67.079 13.1042C67.1975 13.5417 67.2568 14.0203 67.2568 14.5398V15.1072H61.7333V14.075H65.9921V13.9792C65.9739 13.6511 65.9055 13.3321 65.787 13.0222C65.6731 12.7123 65.4908 12.4571 65.2402 12.2566C64.9895 12.0561 64.6477 11.9558 64.2148 11.9558C63.9277 11.9558 63.6633 12.0173 63.4218 12.1404C63.1803 12.2589 62.9729 12.4366 62.7997 12.6736C62.6266 12.9106 62.4921 13.2 62.3964 13.5417C62.3007 13.8835 62.2529 14.2778 62.2529 14.7244V15.0115C62.2529 15.3624 62.3007 15.6928 62.3964 16.0027C62.4967 16.308 62.6402 16.5769 62.8271 16.8093C63.0185 17.0417 63.2486 17.224 63.5175 17.3562C63.7909 17.4884 64.1008 17.5544 64.4472 17.5544C64.8938 17.5544 65.2721 17.4633 65.582 17.281C65.8919 17.0987 66.163 16.8549 66.3954 16.5496L67.1611 17.158C67.0016 17.3995 66.7988 17.6296 66.5527 17.8484C66.3066 18.0671 66.0035 18.2449 65.6435 18.3816C65.288 18.5183 64.8665 18.5867 64.3788 18.5867ZM73.05 16.488C73.05 16.3057 73.0089 16.1371 72.9269 15.9822C72.8494 15.8227 72.6877 15.6791 72.4416 15.5515C72.2 15.4194 71.8354 15.3054 71.3478 15.2097C70.9377 15.1231 70.5662 15.0206 70.2336 14.9021C69.9054 14.7836 69.6252 14.6401 69.3927 14.4714C69.1649 14.3028 68.9894 14.1046 68.8664 13.8767C68.7433 13.6488 68.6818 13.3822 68.6818 13.0769C68.6818 12.7852 68.7456 12.5095 68.8732 12.2498C69.0054 11.99 69.1899 11.7598 69.4269 11.5593C69.6684 11.3588 69.9578 11.2016 70.2951 11.0876C70.6323 10.9737 71.0083 10.9167 71.423 10.9167C72.0155 10.9167 72.5213 11.0216 72.9406 11.2312C73.3599 11.4408 73.6811 11.7211 73.9044 12.072C74.1278 12.4184 74.2394 12.8035 74.2394 13.2273H72.9748C72.9748 13.0222 72.9132 12.824 72.7902 12.6326C72.6717 12.4366 72.4962 12.2748 72.2638 12.1472C72.036 12.0196 71.7557 11.9558 71.423 11.9558C71.0721 11.9558 70.7873 12.0105 70.5685 12.1199C70.3543 12.2247 70.1971 12.3591 70.0968 12.5232C70.0011 12.6873 69.9533 12.8604 69.9533 13.0427C69.9533 13.1794 69.9761 13.3025 70.0216 13.4119C70.0718 13.5167 70.1584 13.6147 70.2814 13.7058C70.4044 13.7924 70.5776 13.8744 70.8009 13.9519C71.0242 14.0294 71.3091 14.1069 71.6554 14.1843C72.2615 14.321 72.7606 14.4851 73.1525 14.6765C73.5444 14.8679 73.8361 15.1026 74.0275 15.3806C74.2189 15.6586 74.3146 15.9958 74.3146 16.3923C74.3146 16.7159 74.2462 17.0121 74.1095 17.281C73.9774 17.5499 73.7837 17.7823 73.5285 17.9783C73.2778 18.1697 72.977 18.3201 72.6261 18.4294C72.2798 18.5343 71.8901 18.5867 71.4572 18.5867C70.8055 18.5867 70.2541 18.4705 69.8029 18.238C69.3517 18.0056 69.0099 17.7048 68.7775 17.3357C68.5451 16.9666 68.4289 16.5769 68.4289 16.1667H69.7003C69.7186 16.5131 69.8188 16.7888 70.0011 16.9939C70.1834 17.1944 70.4067 17.338 70.6711 17.4246C70.9354 17.5066 71.1974 17.5476 71.4572 17.5476C71.8035 17.5476 72.0929 17.502 72.3253 17.4109C72.5623 17.3197 72.7423 17.1944 72.8654 17.0349C72.9884 16.8754 73.05 16.6931 73.05 16.488Z" fill="black" fill-opacity="0.8"/>
<path d="M4.93555 31.199L2.22852 39.45H0.0478516L3.74609 29.4968H5.13379L4.93555 31.199ZM7.18457 39.45L4.4707 31.199L4.25195 29.4968H5.65332L9.37207 39.45H7.18457ZM7.06152 35.7449V37.3513H1.80469V35.7449H7.06152ZM12.1506 33.6667V39.45H10.1819V32.0535H12.0344L12.1506 33.6667ZM14.3791 32.0056L14.345 33.8308C14.2493 33.8171 14.133 33.8057 13.9963 33.7966C13.8642 33.783 13.7434 33.7761 13.634 33.7761C13.356 33.7761 13.1145 33.8126 12.9094 33.8855C12.7089 33.9539 12.5403 34.0564 12.4036 34.1931C12.2714 34.3298 12.1711 34.4962 12.1028 34.6921C12.039 34.8881 12.0025 35.1114 11.9934 35.3621L11.5969 35.239C11.5969 34.7605 11.6448 34.3207 11.7405 33.9197C11.8362 33.5141 11.9752 33.1609 12.1575 32.8601C12.3443 32.5593 12.5722 32.3269 12.8411 32.1628C13.1099 31.9988 13.4176 31.9167 13.7639 31.9167C13.8733 31.9167 13.9849 31.9259 14.0989 31.9441C14.2128 31.9578 14.3062 31.9783 14.3791 32.0056ZM19.2837 32.0535V33.448H14.977V32.0535H19.2837ZM16.0434 30.2283H18.0122V37.2214C18.0122 37.4356 18.0395 37.5997 18.0942 37.7136C18.1535 37.8276 18.2401 37.9073 18.354 37.9529C18.4679 37.9939 18.6115 38.0144 18.7846 38.0144C18.9077 38.0144 19.0171 38.0098 19.1128 38.0007C19.213 37.9871 19.2973 37.9734 19.3657 37.9597L19.3725 39.4089C19.2039 39.4636 19.0216 39.5069 18.8257 39.5388C18.6297 39.5707 18.4132 39.5867 18.1763 39.5867C17.7433 39.5867 17.3651 39.516 17.0415 39.3748C16.7225 39.2289 16.4764 38.9965 16.3032 38.6775C16.13 38.3585 16.0434 37.9392 16.0434 37.4197V30.2283ZM23.8191 39.5867C23.2448 39.5867 22.7299 39.4955 22.2741 39.3132C21.8184 39.1264 21.431 38.8689 21.112 38.5408C20.7976 38.2126 20.556 37.8321 20.3874 37.3992C20.2188 36.9617 20.1345 36.4968 20.1345 36.0046V35.7312C20.1345 35.1707 20.2142 34.658 20.3738 34.1931C20.5333 33.7283 20.7611 33.325 21.0573 32.9832C21.3581 32.6414 21.7227 32.3793 22.1511 32.197C22.5795 32.0102 23.0626 31.9167 23.6003 31.9167C24.1244 31.9167 24.5892 32.0033 24.9948 32.1765C25.4004 32.3497 25.74 32.5958 26.0134 32.9148C26.2914 33.2338 26.501 33.6166 26.6423 34.0632C26.7836 34.5053 26.8542 34.9975 26.8542 35.5398V36.3601H20.9753V35.0476H24.9196V34.8972C24.9196 34.6238 24.8695 34.38 24.7693 34.1658C24.6736 33.947 24.5277 33.7738 24.3318 33.6462C24.1358 33.5186 23.8851 33.4548 23.5798 33.4548C23.32 33.4548 23.0967 33.5118 22.9099 33.6257C22.723 33.7397 22.5704 33.8992 22.4519 34.1042C22.3379 34.3093 22.2514 34.5509 22.1921 34.8289C22.1374 35.1023 22.1101 35.4031 22.1101 35.7312V36.0046C22.1101 36.3009 22.1511 36.5743 22.2331 36.825C22.3197 37.0756 22.4405 37.2921 22.5954 37.4744C22.7549 37.6567 22.9463 37.7979 23.1696 37.8982C23.3975 37.9985 23.655 38.0486 23.9421 38.0486C24.2976 38.0486 24.628 37.9802 24.9333 37.8435C25.2432 37.7022 25.5098 37.4903 25.7331 37.2078L26.6902 38.2468C26.5352 38.4701 26.3233 38.6843 26.0544 38.8894C25.7901 39.0945 25.4711 39.2631 25.0974 39.3953C24.7237 39.5229 24.2976 39.5867 23.8191 39.5867ZM30.0634 28.95V39.45H28.0879V28.95H30.0634ZM41.9233 37.9119V39.45H35.1147V38.1375L38.3344 34.6853C38.658 34.3253 38.9132 34.0085 39.1 33.7351C39.2869 33.4571 39.4213 33.2087 39.5034 32.99C39.5899 32.7667 39.6332 32.5548 39.6332 32.3542C39.6332 32.0535 39.5831 31.796 39.4829 31.5818C39.3826 31.363 39.2345 31.1944 39.0385 31.0759C38.8471 30.9574 38.6101 30.8982 38.3276 30.8982C38.0268 30.8982 37.767 30.9711 37.5483 31.1169C37.3341 31.2628 37.17 31.4656 37.0561 31.7253C36.9467 31.9851 36.892 32.2791 36.892 32.6072H34.9164C34.9164 32.0147 35.0577 31.4724 35.3403 30.9802C35.6228 30.4835 36.0216 30.0893 36.5366 29.7976C37.0515 29.5014 37.6622 29.3533 38.3686 29.3533C39.0659 29.3533 39.6538 29.4672 40.1323 29.6951C40.6153 29.9184 40.9799 30.2419 41.226 30.6658C41.4767 31.085 41.602 31.5863 41.602 32.1697C41.602 32.4978 41.5496 32.8191 41.4448 33.1335C41.3399 33.4434 41.1896 33.7533 40.9936 34.0632C40.8022 34.3686 40.5698 34.6785 40.2963 34.9929C40.0229 35.3074 39.7198 35.6332 39.3871 35.9705L37.6577 37.9119H41.9233ZM45.1804 33.6189H46.2331C46.5703 33.6189 46.8483 33.5619 47.0671 33.448C47.2858 33.3295 47.4476 33.1654 47.5524 32.9558C47.6618 32.7416 47.7165 32.4932 47.7165 32.2107C47.7165 31.9555 47.6664 31.7299 47.5661 31.5339C47.4704 31.3334 47.3223 31.1785 47.1218 31.0691C46.9212 30.9552 46.6683 30.8982 46.363 30.8982C46.1214 30.8982 45.8981 30.946 45.693 31.0417C45.488 31.1375 45.3239 31.2719 45.2009 31.4451C45.0778 31.6182 45.0163 31.8279 45.0163 32.074H43.0407C43.0407 31.5271 43.1865 31.0509 43.4782 30.6453C43.7744 30.2397 44.1709 29.9229 44.6677 29.6951C45.1644 29.4672 45.7113 29.3533 46.3083 29.3533C46.9828 29.3533 47.5729 29.4626 48.0788 29.6814C48.5846 29.8956 48.9789 30.2123 49.2614 30.6316C49.544 31.0509 49.6852 31.5704 49.6852 32.1902C49.6852 32.5046 49.6123 32.81 49.4665 33.1062C49.3207 33.3979 49.111 33.6622 48.8376 33.8992C48.5687 34.1316 48.2406 34.3184 47.8532 34.4597C47.4658 34.5964 47.0306 34.6648 46.5475 34.6648H45.1804V33.6189ZM45.1804 35.116V34.0974H46.5475C47.0899 34.0974 47.5661 34.1589 47.9762 34.282C48.3864 34.405 48.7305 34.5828 49.0085 34.8152C49.2865 35.0431 49.4961 35.3142 49.6374 35.6287C49.7787 35.9386 49.8493 36.2826 49.8493 36.6609C49.8493 37.1257 49.7604 37.5404 49.5827 37.905C49.405 38.2651 49.1543 38.5704 48.8307 38.821C48.5117 39.0717 48.138 39.2631 47.7096 39.3953C47.2813 39.5229 46.8141 39.5867 46.3083 39.5867C45.889 39.5867 45.4766 39.5297 45.071 39.4158C44.6699 39.2973 44.3054 39.1218 43.9772 38.8894C43.6537 38.6524 43.3939 38.3562 43.1979 38.0007C43.0065 37.6407 42.9108 37.2146 42.9108 36.7224H44.8864C44.8864 36.9776 44.9502 37.2055 45.0778 37.406C45.2054 37.6065 45.3809 37.7638 45.6042 37.8777C45.832 37.9916 46.085 38.0486 46.363 38.0486C46.6774 38.0486 46.9463 37.9916 47.1696 37.8777C47.3975 37.7592 47.5707 37.5951 47.6891 37.3855C47.8122 37.1713 47.8737 36.9229 47.8737 36.6404C47.8737 36.2758 47.8076 35.9841 47.6755 35.7654C47.5433 35.5421 47.3542 35.378 47.1081 35.2732C46.862 35.1684 46.5703 35.116 46.2331 35.116H45.1804ZM52.3544 29.4968H54.0907L56.6474 36.8044L59.204 29.4968H60.9404L57.3447 39.45H55.9501L52.3544 29.4968ZM51.4179 29.4968H53.1474L53.4618 36.6199V39.45H51.4179V29.4968ZM60.1474 29.4968H61.8837V39.45H59.8329V36.6199L60.1474 29.4968ZM65.5031 29.4968L67.3761 32.9695L69.2492 29.4968H71.5939L68.7023 34.4324L71.6691 39.45H69.3039L67.3761 35.9089L65.4484 39.45H63.0695L66.0431 34.4324L63.1447 29.4968H65.5031ZM74.5229 33.6189H75.5756C75.9128 33.6189 76.1908 33.5619 76.4096 33.448C76.6283 33.3295 76.7901 33.1654 76.8949 32.9558C77.0043 32.7416 77.059 32.4932 77.059 32.2107C77.059 31.9555 77.0089 31.7299 76.9086 31.5339C76.8129 31.3334 76.6648 31.1785 76.4643 31.0691C76.2637 30.9552 76.0108 30.8982 75.7055 30.8982C75.4639 30.8982 75.2406 30.946 75.0355 31.0417C74.8305 31.1375 74.6664 31.2719 74.5434 31.4451C74.4203 31.6182 74.3588 31.8279 74.3588 32.074H72.3832C72.3832 31.5271 72.529 31.0509 72.8207 30.6453C73.1169 30.2397 73.5134 29.9229 74.0102 29.6951C74.5069 29.4672 75.0538 29.3533 75.6508 29.3533C76.3253 29.3533 76.9154 29.4626 77.4213 29.6814C77.9271 29.8956 78.3214 30.2123 78.6039 30.6316C78.8865 31.0509 79.0277 31.5704 79.0277 32.1902C79.0277 32.5046 78.9548 32.81 78.809 33.1062C78.6631 33.3979 78.4535 33.6622 78.1801 33.8992C77.9112 34.1316 77.5831 34.3184 77.1957 34.4597C76.8083 34.5964 76.3731 34.6648 75.89 34.6648H74.5229V33.6189ZM74.5229 35.116V34.0974H75.89C76.4324 34.0974 76.9086 34.1589 77.3187 34.282C77.7289 34.405 78.073 34.5828 78.351 34.8152C78.629 35.0431 78.8386 35.3142 78.9799 35.6287C79.1212 35.9386 79.1918 36.2826 79.1918 36.6609C79.1918 37.1257 79.1029 37.5404 78.9252 37.905C78.7475 38.2651 78.4968 38.5704 78.1732 38.821C77.8542 39.0717 77.4805 39.2631 77.0521 39.3953C76.6238 39.5229 76.1566 39.5867 75.6508 39.5867C75.2315 39.5867 74.8191 39.5297 74.4135 39.4158C74.0124 39.2973 73.6479 39.1218 73.3197 38.8894C72.9962 38.6524 72.7364 38.3562 72.5404 38.0007C72.349 37.6407 72.2533 37.2146 72.2533 36.7224H74.2289C74.2289 36.9776 74.2927 37.2055 74.4203 37.406C74.5479 37.6065 74.7234 37.7638 74.9467 37.8777C75.1745 37.9916 75.4275 38.0486 75.7055 38.0486C76.0199 38.0486 76.2888 37.9916 76.5121 37.8777C76.74 37.7592 76.9131 37.5951 77.0316 37.3855C77.1547 37.1713 77.2162 36.9229 77.2162 36.6404C77.2162 36.2758 77.1501 35.9841 77.018 35.7654C76.8858 35.5421 76.6967 35.378 76.4506 35.2732C76.2045 35.1684 75.9128 35.116 75.5756 35.116H74.5229ZM81.9498 37.9529H82.0797C82.6266 37.9529 83.096 37.8868 83.4879 37.7546C83.8844 37.6179 84.2103 37.422 84.4655 37.1667C84.7207 36.9115 84.9098 36.5994 85.0329 36.2302C85.1559 35.8565 85.2174 35.4327 85.2174 34.9587V33.072C85.2174 32.712 85.181 32.3953 85.108 32.1218C85.0397 31.8484 84.9394 31.6228 84.8073 31.4451C84.6797 31.2628 84.5293 31.1261 84.3561 31.0349C84.1875 30.9438 84.0006 30.8982 83.7955 30.8982C83.5768 30.8982 83.3831 30.9529 83.2145 31.0623C83.0459 31.1671 82.9023 31.3106 82.7838 31.4929C82.6699 31.6752 82.581 31.8848 82.5172 32.1218C82.458 32.3542 82.4284 32.5981 82.4284 32.8533C82.4284 33.1085 82.458 33.3523 82.5172 33.5847C82.5765 33.8126 82.6653 34.0154 82.7838 34.1931C82.9023 34.3663 83.0504 34.5053 83.2282 34.6101C83.4059 34.7104 83.6155 34.7605 83.8571 34.7605C84.0895 34.7605 84.2968 34.7172 84.4791 34.6306C84.666 34.5395 84.8232 34.421 84.9508 34.2751C85.083 34.1293 85.1832 33.9675 85.2516 33.7898C85.3245 33.6121 85.361 33.432 85.361 33.2498L86.0104 33.6052C86.0104 33.9242 85.942 34.2387 85.8053 34.5486C85.6686 34.8585 85.4772 35.141 85.2311 35.3962C84.9896 35.6469 84.7093 35.8474 84.3903 35.9978C84.0713 36.1482 83.7295 36.2234 83.3649 36.2234C82.9 36.2234 82.4876 36.1391 82.1276 35.9705C81.7676 35.7973 81.4622 35.5603 81.2116 35.2595C80.9655 34.9542 80.7786 34.5987 80.651 34.1931C80.5234 33.7875 80.4596 33.3477 80.4596 32.8738C80.4596 32.3907 80.5371 31.9373 80.692 31.5134C80.8515 31.0896 81.0771 30.7159 81.3688 30.3923C81.665 30.0688 82.0182 29.8158 82.4284 29.6335C82.8431 29.4467 83.3034 29.3533 83.8092 29.3533C84.3151 29.3533 84.7754 29.4513 85.1901 29.6472C85.6048 29.8432 85.9603 30.1212 86.2565 30.4812C86.5527 30.8367 86.7806 31.2628 86.9401 31.7595C87.1041 32.2563 87.1862 32.8077 87.1862 33.4138V34.0974C87.1862 34.7445 87.1155 35.3461 86.9743 35.9021C86.8375 36.4581 86.6302 36.9617 86.3522 37.4128C86.0788 37.8595 85.737 38.2423 85.3268 38.5613C84.9212 38.8803 84.4495 39.1241 83.9118 39.2927C83.374 39.4613 82.7724 39.5457 82.1071 39.5457H81.9498V37.9529ZM94.1515 33.5847V39.45H92.1759V32.0535H94.0284L94.1515 33.5847ZM93.878 35.4919H93.3312C93.3312 34.977 93.3927 34.503 93.5157 34.0701C93.6433 33.6326 93.8279 33.2543 94.0695 32.9353C94.3155 32.6117 94.6186 32.3611 94.9786 32.1833C95.3387 32.0056 95.7556 31.9167 96.2296 31.9167C96.5577 31.9167 96.8585 31.9669 97.132 32.0671C97.4054 32.1628 97.6401 32.3155 97.8361 32.5251C98.0366 32.7302 98.1915 32.9991 98.3009 33.3318C98.4103 33.6599 98.465 34.0541 98.465 34.5144V39.45H96.4962V34.7332C96.4962 34.3959 96.4506 34.1361 96.3595 33.9539C96.2683 33.7716 96.1385 33.644 95.9698 33.571C95.8058 33.4981 95.6075 33.4617 95.3751 33.4617C95.1199 33.4617 94.8966 33.5141 94.7052 33.6189C94.5183 33.7237 94.3634 33.8695 94.2403 34.0564C94.1173 34.2387 94.0262 34.4529 93.9669 34.699C93.9077 34.9451 93.878 35.2094 93.878 35.4919ZM98.2804 35.2664L97.5763 35.3552C97.5763 34.8722 97.6355 34.4233 97.754 34.0085C97.8771 33.5938 98.0571 33.2292 98.2941 32.9148C98.5356 32.6003 98.8341 32.3565 99.1896 32.1833C99.545 32.0056 99.9552 31.9167 100.42 31.9167C100.776 31.9167 101.099 31.9692 101.391 32.074C101.682 32.1742 101.931 32.336 102.136 32.5593C102.345 32.7781 102.505 33.0652 102.614 33.4207C102.728 33.7761 102.785 34.2113 102.785 34.7263V39.45H100.81V34.7263C100.81 34.3845 100.764 34.1248 100.673 33.947C100.586 33.7647 100.459 33.6394 100.29 33.571C100.126 33.4981 99.9301 33.4617 99.7023 33.4617C99.4653 33.4617 99.2579 33.5095 99.0802 33.6052C98.9025 33.6964 98.7543 33.824 98.6359 33.988C98.5174 34.1521 98.4285 34.3435 98.3693 34.5623C98.31 34.7764 98.2804 35.0111 98.2804 35.2664ZM106.398 32.0535V39.45H104.422V32.0535H106.398ZM104.299 30.1257C104.299 29.8386 104.399 29.6016 104.6 29.4148C104.8 29.2279 105.069 29.1345 105.407 29.1345C105.739 29.1345 106.006 29.2279 106.206 29.4148C106.411 29.6016 106.514 29.8386 106.514 30.1257C106.514 30.4128 106.411 30.6498 106.206 30.8367C106.006 31.0235 105.739 31.1169 105.407 31.1169C105.069 31.1169 104.8 31.0235 104.6 30.8367C104.399 30.6498 104.299 30.4128 104.299 30.1257ZM111.09 38.0486C111.332 38.0486 111.546 38.003 111.733 37.9119C111.92 37.8162 112.066 37.684 112.171 37.5154C112.28 37.3422 112.337 37.1394 112.341 36.907H114.194C114.189 37.4265 114.05 37.8891 113.777 38.2947C113.504 38.6957 113.137 39.0125 112.676 39.2449C112.216 39.4727 111.701 39.5867 111.131 39.5867C110.557 39.5867 110.056 39.491 109.628 39.2996C109.204 39.1082 108.851 38.8438 108.568 38.5066C108.285 38.1648 108.074 37.7683 107.932 37.3171C107.791 36.8614 107.72 36.3738 107.72 35.8542V35.656C107.72 35.1319 107.791 34.6443 107.932 34.1931C108.074 33.7374 108.285 33.3409 108.568 33.0037C108.851 32.6619 109.204 32.3953 109.628 32.2039C110.051 32.0125 110.548 31.9167 111.118 31.9167C111.724 31.9167 112.255 32.033 112.711 32.2654C113.171 32.4978 113.531 32.8305 113.791 33.2634C114.055 33.6918 114.189 34.2 114.194 34.7878H112.341C112.337 34.5417 112.284 34.3184 112.184 34.1179C112.088 33.9174 111.947 33.7579 111.76 33.6394C111.578 33.5164 111.352 33.4548 111.084 33.4548C110.796 33.4548 110.562 33.5164 110.379 33.6394C110.197 33.7579 110.056 33.922 109.956 34.1316C109.855 34.3367 109.785 34.5714 109.744 34.8357C109.707 35.0955 109.689 35.3689 109.689 35.656V35.8542C109.689 36.1414 109.707 36.4171 109.744 36.6814C109.78 36.9457 109.849 37.1804 109.949 37.3855C110.054 37.5906 110.197 37.7524 110.379 37.8708C110.562 37.9893 110.799 38.0486 111.09 38.0486ZM117.314 33.6667V39.45H115.346V32.0535H117.198L117.314 33.6667ZM119.543 32.0056L119.509 33.8308C119.413 33.8171 119.297 33.8057 119.16 33.7966C119.028 33.783 118.907 33.7761 118.798 33.7761C118.52 33.7761 118.278 33.8126 118.073 33.8855C117.873 33.9539 117.704 34.0564 117.567 34.1931C117.435 34.3298 117.335 34.4962 117.266 34.6921C117.203 34.8881 117.166 35.1114 117.157 35.3621L116.761 35.239C116.761 34.7605 116.808 34.3207 116.904 33.9197C117 33.5141 117.139 33.1609 117.321 32.8601C117.508 32.5593 117.736 32.3269 118.005 32.1628C118.274 31.9988 118.581 31.9167 118.928 31.9167C119.037 31.9167 119.149 31.9259 119.263 31.9441C119.376 31.9578 119.47 31.9783 119.543 32.0056ZM119.963 35.8269V35.6833C119.963 35.141 120.04 34.642 120.195 34.1863C120.35 33.726 120.576 33.3272 120.872 32.99C121.168 32.6528 121.533 32.3907 121.966 32.2039C122.399 32.0125 122.896 31.9167 123.456 31.9167C124.017 31.9167 124.516 32.0125 124.953 32.2039C125.391 32.3907 125.758 32.6528 126.054 32.99C126.355 33.3272 126.582 33.726 126.737 34.1863C126.892 34.642 126.97 35.141 126.97 35.6833V35.8269C126.97 36.3647 126.892 36.8637 126.737 37.324C126.582 37.7797 126.355 38.1785 126.054 38.5203C125.758 38.8575 125.393 39.1195 124.96 39.3064C124.527 39.4932 124.03 39.5867 123.47 39.5867C122.909 39.5867 122.41 39.4932 121.973 39.3064C121.54 39.1195 121.173 38.8575 120.872 38.5203C120.576 38.1785 120.35 37.7797 120.195 37.324C120.04 36.8637 119.963 36.3647 119.963 35.8269ZM121.932 35.6833V35.8269C121.932 36.1368 121.959 36.4262 122.014 36.6951C122.068 36.9639 122.155 37.2009 122.274 37.406C122.397 37.6065 122.556 37.7638 122.752 37.8777C122.948 37.9916 123.187 38.0486 123.47 38.0486C123.743 38.0486 123.978 37.9916 124.174 37.8777C124.37 37.7638 124.527 37.6065 124.646 37.406C124.764 37.2009 124.851 36.9639 124.905 36.6951C124.965 36.4262 124.994 36.1368 124.994 35.8269V35.6833C124.994 35.3826 124.965 35.1 124.905 34.8357C124.851 34.5668 124.762 34.3298 124.639 34.1248C124.52 33.9151 124.363 33.7511 124.167 33.6326C123.971 33.5141 123.734 33.4548 123.456 33.4548C123.178 33.4548 122.941 33.5141 122.745 33.6326C122.554 33.7511 122.397 33.9151 122.274 34.1248C122.155 34.3298 122.068 34.5668 122.014 34.8357C121.959 35.1 121.932 35.3826 121.932 35.6833ZM130.302 37.5359L131.84 32.0535H133.091L132.688 34.2068L131.15 39.45H130.104L130.302 37.5359ZM129.523 32.0535L130.623 37.5291L130.726 39.45H129.495L127.622 32.0535H129.523ZM134.499 37.4402L135.573 32.0535H137.48L135.607 39.45H134.383L134.499 37.4402ZM133.262 32.0535L134.793 37.4949L135.005 39.45H133.952L132.414 34.2136L132.025 32.0535H133.262ZM142.473 37.782V34.4871C142.473 34.2501 142.434 34.0473 142.357 33.8787C142.28 33.7055 142.159 33.571 141.995 33.4753C141.835 33.3796 141.628 33.3318 141.373 33.3318C141.154 33.3318 140.965 33.3705 140.805 33.448C140.646 33.5209 140.523 33.628 140.436 33.7693C140.35 33.906 140.306 34.0678 140.306 34.2546H138.337C138.337 33.9402 138.41 33.6417 138.556 33.3591C138.702 33.0766 138.914 32.8282 139.192 32.614C139.47 32.3953 139.8 32.2244 140.183 32.1013C140.571 31.9783 141.003 31.9167 141.482 31.9167C142.056 31.9167 142.567 32.0125 143.013 32.2039C143.46 32.3953 143.811 32.6824 144.066 33.0652C144.326 33.448 144.456 33.9265 144.456 34.5007V37.6658C144.456 38.0714 144.481 38.4041 144.531 38.6638C144.581 38.919 144.654 39.1423 144.75 39.3337V39.45H142.76C142.665 39.2494 142.592 38.9988 142.542 38.698C142.496 38.3927 142.473 38.0873 142.473 37.782ZM142.733 34.9451L142.747 36.0593H141.646C141.386 36.0593 141.161 36.0889 140.969 36.1482C140.778 36.2074 140.621 36.2917 140.498 36.4011C140.375 36.5059 140.283 36.629 140.224 36.7703C140.169 36.9115 140.142 37.0665 140.142 37.2351C140.142 37.4037 140.181 37.5564 140.258 37.6931C140.336 37.8253 140.447 37.9301 140.593 38.0076C140.739 38.0805 140.91 38.1169 141.106 38.1169C141.402 38.1169 141.66 38.0577 141.878 37.9392C142.097 37.8207 142.266 37.6749 142.384 37.5017C142.507 37.3285 142.571 37.1645 142.576 37.0095L143.095 37.8435C143.022 38.0304 142.922 38.224 142.794 38.4246C142.671 38.6251 142.514 38.8142 142.323 38.9919C142.131 39.1651 141.901 39.3087 141.632 39.4226C141.364 39.532 141.044 39.5867 140.675 39.5867C140.206 39.5867 139.78 39.4932 139.397 39.3064C139.019 39.115 138.718 38.8529 138.495 38.5203C138.276 38.183 138.167 37.8002 138.167 37.3718C138.167 36.9845 138.239 36.6404 138.385 36.3396C138.531 36.0388 138.745 35.7859 139.028 35.5808C139.315 35.3712 139.673 35.2139 140.101 35.1091C140.53 34.9998 141.026 34.9451 141.591 34.9451H142.733ZM148.389 38.0144L150.03 32.0535H152.088L149.593 39.45H148.348L148.389 38.0144ZM147.262 32.0535L148.909 38.0212L148.943 39.45H147.692L145.197 32.0535H147.262ZM156.288 39.5867C155.714 39.5867 155.199 39.4955 154.743 39.3132C154.287 39.1264 153.9 38.8689 153.581 38.5408C153.267 38.2126 153.025 37.8321 152.856 37.3992C152.688 36.9617 152.604 36.4968 152.604 36.0046V35.7312C152.604 35.1707 152.683 34.658 152.843 34.1931C153.002 33.7283 153.23 33.325 153.526 32.9832C153.827 32.6414 154.192 32.3793 154.62 32.197C155.049 32.0102 155.532 31.9167 156.069 31.9167C156.593 31.9167 157.058 32.0033 157.464 32.1765C157.87 32.3497 158.209 32.5958 158.482 32.9148C158.76 33.2338 158.97 33.6166 159.111 34.0632C159.253 34.5053 159.323 34.9975 159.323 35.5398V36.3601H153.444V35.0476H157.389V34.8972C157.389 34.6238 157.339 34.38 157.238 34.1658C157.143 33.947 156.997 33.7738 156.801 33.6462C156.605 33.5186 156.354 33.4548 156.049 33.4548C155.789 33.4548 155.566 33.5118 155.379 33.6257C155.192 33.7397 155.039 33.8992 154.921 34.1042C154.807 34.3093 154.72 34.5509 154.661 34.8289C154.606 35.1023 154.579 35.4031 154.579 35.7312V36.0046C154.579 36.3009 154.62 36.5743 154.702 36.825C154.789 37.0756 154.91 37.2921 155.064 37.4744C155.224 37.6567 155.415 37.7979 155.639 37.8982C155.867 37.9985 156.124 38.0486 156.411 38.0486C156.767 38.0486 157.097 37.9802 157.402 37.8435C157.712 37.7022 157.979 37.4903 158.202 37.2078L159.159 38.2468C159.004 38.4701 158.792 38.6843 158.523 38.8894C158.259 39.0945 157.94 39.2631 157.566 39.3953C157.193 39.5229 156.767 39.5867 156.288 39.5867Z" fill="black" fill-opacity="0.8"/>
</svg>
