<svg width="61" height="61" viewBox="0 0 61 61" fill="none" xmlns="http://www.w3.org/2000/svg">
<g filter="url(#filter0_d_12778_12095)">
<rect x="5.96973" y="5.44995" width="50" height="50" rx="25" fill="white" shape-rendering="crispEdges"/>
<g clip-path="url(#clip0_12778_12095)">
<g clip-path="url(#clip1_12778_12095)">
<path d="M47.7979 24.1617C47.2627 25.4314 42.751 29.5894 41.5117 30.1259L39.8661 29.4634C40.9717 29.1948 45.9757 25.1399 46.5926 23.6757C47.4607 21.6168 46.8162 19.4042 45.1526 18.734C44.5364 18.4862 43.3803 18.4813 42.7392 18.6807V17.2961C43.662 17.0102 44.7455 17.1922 45.6483 17.5557C47.9779 18.4938 48.9402 21.4513 47.7979 24.1617ZM33.0469 33.9115C33.0483 35.2455 33.04 37.2678 33.0469 37.373C33.2788 41.3905 35.7067 44.6741 39.8751 44.6741C40.0219 44.6741 40.1645 44.6824 40.3092 44.6741C40.789 44.6741 41.178 45.0549 41.178 45.5235C41.178 45.9929 40.789 46.373 40.3092 46.373C40.1638 46.3799 40.0219 46.373 39.8751 46.373H22.0648C21.918 46.373 21.7754 46.3799 21.6307 46.373C21.151 46.373 20.7619 45.9922 20.7619 45.5235C20.7619 45.0549 21.151 44.6741 21.6307 44.6741C21.7761 44.6824 21.918 44.6741 22.0648 44.6741C26.2325 44.6741 28.6611 41.3905 28.893 37.373C28.9 37.2678 28.8917 35.2455 28.893 33.9115C25.7569 30.497 20.5853 23.9028 20.5853 20.0653C20.5853 19.5516 20.595 15.0253 20.5853 14.5269H41.3546C41.3449 15.0253 41.3546 19.5516 41.3546 20.0653C41.3546 23.9028 36.183 30.497 33.0469 33.9115ZM39.97 15.9115H21.97C21.9734 17.3709 21.97 19.8459 21.97 20.0653C21.97 24.1063 28.2111 31.1374 30.3192 33.3784V35.5356C30.3178 35.5356 30.3171 35.5342 30.3171 35.5335C30.315 36.3595 30.3123 37.382 30.3081 37.4692C30.1669 40.4517 29.163 43.3753 26.8161 44.9884H35.1238C32.7769 43.3767 31.773 40.4524 31.6318 37.4699C31.6277 37.3813 31.6249 36.3595 31.6228 35.5335C31.6228 35.5335 31.6228 35.5349 31.6214 35.5356V33.3784C33.7295 31.1374 39.97 24.1063 39.97 20.0653C39.97 19.8459 39.9665 17.3709 39.97 15.9115ZM16.788 18.734C15.1237 19.4035 14.4792 21.6168 15.348 23.6771C15.9642 25.1399 20.9682 29.1948 22.0738 29.4634L20.4282 30.1259C19.189 29.5894 14.6772 25.4321 14.142 24.1617C12.9997 21.4513 13.962 18.4938 16.2916 17.5557C17.1944 17.1922 18.2786 17.0102 19.2007 17.2961V18.6807C18.559 18.4813 17.4028 18.4869 16.788 18.734Z" fill="#62BB46"/>
</g>
</g>
</g>
<defs>
<filter id="filter0_d_12778_12095" x="0.969727" y="0.449951" width="60" height="60" filterUnits="userSpaceOnUse" color-interpolation-filters="sRGB">
<feFlood flood-opacity="0" result="BackgroundImageFix"/>
<feColorMatrix in="SourceAlpha" type="matrix" values="0 0 0 0 0 0 0 0 0 0 0 0 0 0 0 0 0 0 127 0" result="hardAlpha"/>
<feOffset/>
<feGaussianBlur stdDeviation="2.5"/>
<feComposite in2="hardAlpha" operator="out"/>
<feColorMatrix type="matrix" values="0 0 0 0 0 0 0 0 0 0 0 0 0 0 0 0 0 0 0.3 0"/>
<feBlend mode="normal" in2="BackgroundImageFix" result="effect1_dropShadow_12778_12095"/>
<feBlend mode="normal" in="SourceGraphic" in2="effect1_dropShadow_12778_12095" result="shape"/>
</filter>
<clipPath id="clip0_12778_12095">
<rect width="36" height="36" fill="white" transform="translate(12.9697 12.45)"/>
</clipPath>
<clipPath id="clip1_12778_12095">
<rect width="36" height="36" fill="white" transform="translate(12.9697 12.45)"/>
</clipPath>
</defs>
</svg>
