<svg width="61" height="61" viewBox="0 0 61 61" fill="none" xmlns="http://www.w3.org/2000/svg">
<g filter="url(#filter0_d_12778_12102)">
<rect x="5.91992" y="5.44995" width="50" height="50" rx="25" fill="white" shape-rendering="crispEdges"/>
<g clip-path="url(#clip0_12778_12102)">
<path d="M44.7202 18.2016C43.6217 17.6916 42.5238 17.2431 41.4266 16.8565C40.2884 16.4554 39.1454 16.1191 37.9977 15.848C36.8371 15.5739 35.6742 15.3676 34.509 15.2295C33.341 15.091 32.1768 15.0209 31.0165 15.0195C29.8534 15.0181 28.6831 15.0856 27.5057 15.2221C26.3317 15.3583 25.1578 15.5627 23.9842 15.8356C22.8228 16.1056 21.6579 16.4433 20.4897 16.8488C19.3693 17.2377 18.2458 17.6894 17.1194 18.2041C16.8425 23.0064 17.3226 27.0193 18.2506 30.3611C19.4047 34.5172 21.2516 37.6353 23.1946 39.9433C24.8948 41.9629 26.6659 43.3608 28.108 44.2904C29.4412 45.1497 30.4882 45.6064 30.9379 45.7843C31.3865 45.6064 32.4311 45.1497 33.7615 44.2902C35.2001 43.3608 36.9671 41.9629 38.6631 39.9432C40.6015 37.635 42.4437 34.517 43.5941 30.3616C44.5195 27.0192 44.9977 23.0053 44.7202 18.2016ZM34.7067 13.9569C35.9387 14.1037 37.1646 14.3225 38.3843 14.6127C39.6039 14.903 40.8226 15.2655 42.0401 15.7C43.257 16.1343 44.4719 16.6404 45.6845 17.218L46.0331 17.3842L46.0575 17.7545C46.83 29.5731 43.1645 36.8846 39.283 41.2492C35.6155 45.3733 31.7423 46.8728 31.2296 47.059L31.2262 47.0622L31.0813 47.1111L30.9486 47.1581L30.9463 47.1642L30.9353 47.1604L30.9276 47.163L30.9253 47.1569C30.8491 47.1299 30.768 47.1051 30.6934 47.0756C30.2727 46.9295 14.2477 41.2417 15.7822 17.7545L15.8066 17.3813L16.1604 17.2155C17.3992 16.6352 18.6384 16.1271 19.878 15.6912C21.1202 15.2544 22.3588 14.8913 23.5939 14.6016C24.8355 14.3105 26.0734 14.093 27.3073 13.9488C29.7619 13.6621 32.2527 13.6643 34.7067 13.9569Z" fill="#67B437"/>
<path d="M43.1316 19.7036C39.1125 17.8139 35.0698 16.8593 31.0034 16.8545C26.9351 16.8496 22.8368 17.7951 18.708 19.7049C17.5537 38.4981 29.6825 43.5526 30.9358 44.0243C32.1866 43.5525 44.2873 38.4978 43.1316 19.7036ZM31.0034 16.2837C35.2201 16.2888 39.4057 17.2884 43.5605 19.2674L43.7155 19.3413L43.7262 19.5058C45.0565 39.8575 31.0814 44.5834 31.0413 44.5976L30.9361 44.6349L30.8306 44.5976C30.7904 44.5834 16.7838 39.8577 18.1134 19.5058L18.1243 19.34L18.2815 19.2663C22.5473 17.2679 26.7879 16.2787 31.0034 16.2837Z" fill="#67B437"/>
<path d="M33.1624 27.3871C33.7076 27.5109 34.2103 27.6926 34.678 27.9323C35.1459 28.1721 35.5519 28.4737 35.9037 28.8371C36.2518 29.2005 36.5224 29.6297 36.7195 30.1247C36.9129 30.6196 37.0097 31.1918 37.0097 31.8414C37.0097 32.7384 36.8433 33.5233 36.507 34.196C36.1743 34.8689 35.7066 35.4334 35.1073 35.8897C34.5118 36.3458 33.8043 36.6861 32.9884 36.9104C32.1726 37.1346 31.2871 37.2468 30.3283 37.2468C30.0344 37.2468 29.6671 37.2275 29.2263 37.1887C28.7855 37.1502 28.3138 37.0844 27.8111 36.9916C27.3085 36.8988 26.7981 36.7751 26.28 36.6204C25.7619 36.4658 25.2786 36.2647 24.8301 36.0173L25.8972 33.0246C26.3767 33.1792 26.7981 33.3068 27.1615 33.4074C27.525 33.5079 27.8575 33.5852 28.1592 33.6393C28.4607 33.6934 28.7391 33.7321 28.9943 33.7553C29.2496 33.7785 29.493 33.7901 29.725 33.7901C30.6531 33.7901 31.3568 33.6161 31.8363 33.2682C32.3156 32.9202 32.5554 32.4213 32.5554 31.7718C32.5554 31.5089 32.509 31.2614 32.4162 31.0294C32.3234 30.7974 32.1648 30.5925 31.9405 30.4147C31.7163 30.2368 31.4109 30.0938 31.0243 29.9854C30.6376 29.8772 30.1582 29.8231 29.5858 29.8231C29.2766 29.8231 28.9363 29.8462 28.5652 29.8927L28.1011 27.6655C28.2403 27.5263 28.4452 27.3292 28.716 27.074C28.9866 26.8188 29.2727 26.556 29.5743 26.2852C29.8759 26.0146 30.1658 25.7516 30.4442 25.4965C30.7226 25.2413 30.9314 25.044 31.0706 24.9048C31.0552 24.8894 31.0397 24.8585 31.0243 24.8121C31.0087 24.7657 31.0011 24.7347 31.0011 24.7193H25.6189V21.4946H36.1705L36.6848 24.1626L33.1393 27.2016L33.1624 27.3871Z" fill="#67B437"/>
</g>
</g>
<defs>
<filter id="filter0_d_12778_12102" x="0.919922" y="0.449951" width="60" height="60" filterUnits="userSpaceOnUse" color-interpolation-filters="sRGB">
<feFlood flood-opacity="0" result="BackgroundImageFix"/>
<feColorMatrix in="SourceAlpha" type="matrix" values="0 0 0 0 0 0 0 0 0 0 0 0 0 0 0 0 0 0 127 0" result="hardAlpha"/>
<feOffset/>
<feGaussianBlur stdDeviation="2.5"/>
<feComposite in2="hardAlpha" operator="out"/>
<feColorMatrix type="matrix" values="0 0 0 0 0 0 0 0 0 0 0 0 0 0 0 0 0 0 0.3 0"/>
<feBlend mode="normal" in2="BackgroundImageFix" result="effect1_dropShadow_12778_12102"/>
<feBlend mode="normal" in="SourceGraphic" in2="effect1_dropShadow_12778_12102" result="shape"/>
</filter>
<clipPath id="clip0_12778_12102">
<rect width="36" height="36" fill="white" transform="translate(12.9199 12.45)"/>
</clipPath>
</defs>
</svg>
