<svg width="56" height="61" viewBox="0 0 56 61" fill="none" xmlns="http://www.w3.org/2000/svg">
<g filter="url(#filter0_d_12778_12078)">
<rect x="0.0595703" y="5.44995" width="50" height="50" rx="25" fill="white" shape-rendering="crispEdges"/>
<g clip-path="url(#clip0_12778_12078)">
<g clip-path="url(#clip1_12778_12078)">
<path d="M28.1396 29.7202L28.4974 29.3623C28.5731 29.2868 28.6331 29.1971 28.6741 29.0984C28.715 28.9997 28.7361 28.8939 28.7361 28.787C28.7361 28.6801 28.715 28.5743 28.6741 28.4756C28.6331 28.3768 28.5731 28.2872 28.4974 28.2117C28.422 28.1361 28.3324 28.0762 28.2338 28.0353C28.1351 27.9944 28.0294 27.9733 27.9227 27.9733C27.8159 27.9733 27.7102 27.9944 27.6115 28.0353C27.5129 28.0762 27.4233 28.1361 27.3479 28.2117L26.99 28.5695L25.7938 29.7658L16.6211 20.58L16.3207 18.013L10.5029 14.2812L7.05957 17.7229L10.8597 23.6107L13.3703 23.8167L22.5327 33.0252L20.9818 34.5761C20.8338 34.7295 20.7519 34.935 20.7538 35.1483C20.7558 35.3616 20.8414 35.5655 20.9923 35.7163C21.1432 35.867 21.3472 35.9524 21.5605 35.9542C21.7737 35.9559 21.9792 35.8739 22.1325 35.7256L22.4882 35.371L33.825 46.7078C34.195 47.0802 34.6353 47.3755 35.1202 47.5766C35.6052 47.7776 36.1252 47.8805 36.6502 47.8791C37.7184 47.8791 38.7216 47.4626 39.4753 46.7078C40.2312 45.953 40.6466 44.9498 40.6466 43.8827C40.6466 42.8155 40.2306 41.8113 39.4753 41.0565L28.1396 29.7202ZM14.1007 22.2442L11.7918 22.0555L9.13856 17.9452L10.7274 16.3564L14.7959 18.9668L15.0724 21.331L24.6431 30.918L24.1638 31.3974L23.6833 31.8778L14.1018 22.2453L14.1007 22.2442ZM38.3257 45.5583C38.1063 45.7791 37.8452 45.9542 37.5576 46.0734C37.2699 46.1925 36.9615 46.2534 36.6502 46.2523C36.3389 46.2532 36.0305 46.1922 35.7429 46.0731C35.4553 45.954 35.1942 45.779 34.9746 45.5583L23.6383 34.222L24.2375 33.6228C24.2429 33.6146 24.2505 33.6119 24.257 33.6065C24.2635 33.6011 24.2652 33.5919 24.2711 33.5848L26.348 31.5096C26.3534 31.5031 26.3626 31.501 26.3696 31.495C26.3762 31.4885 26.3783 31.4798 26.3837 31.4733L26.9856 30.8703L38.3257 42.2071C38.5465 42.4266 38.7215 42.6878 38.8407 42.9754C38.9598 43.263 39.0207 43.5714 39.0198 43.8827C39.0208 44.194 38.9599 44.5024 38.8408 44.7901C38.7216 45.0777 38.5466 45.3388 38.3257 45.5583Z" fill="#62BB46"/>
<path d="M22.0602 38.4144L14.8699 45.6047C14.6504 45.8254 14.3893 46.0004 14.1017 46.1195C13.8141 46.2387 13.5057 46.2996 13.1944 46.2988C12.883 46.2998 12.5746 46.239 12.287 46.1198C11.9993 46.0007 11.7382 45.8256 11.5188 45.6047C11.075 45.16 10.8257 44.5574 10.8257 43.9291C10.8257 43.3009 11.075 42.6982 11.5188 42.2536L20.0251 33.7467C20.1007 33.6713 20.1606 33.5817 20.2015 33.4831C20.2424 33.3845 20.2634 33.2787 20.2634 33.172C20.2634 33.0652 20.2424 32.9595 20.2015 32.8608C20.1606 32.7622 20.1007 32.6726 20.0251 32.5972C19.9497 32.5215 19.8602 32.4614 19.7615 32.4205C19.6629 32.3795 19.5571 32.3584 19.4503 32.3584C19.3435 32.3584 19.2378 32.3795 19.1391 32.4205C19.0405 32.4614 18.9509 32.5215 18.8755 32.5972L10.3676 41.1029C8.80975 42.6608 8.80975 45.1969 10.3676 46.7543C11.123 47.5096 12.1267 47.9255 13.1938 47.9255C14.261 47.9255 15.2652 47.5091 16.019 46.7543L23.2103 39.564C23.2858 39.4885 23.3456 39.3989 23.3865 39.3003C23.4273 39.2017 23.4484 39.096 23.4484 38.9892C23.4484 38.8825 23.4273 38.7768 23.3865 38.6782C23.3456 38.5795 23.2858 38.4899 23.2103 38.4144C23.1348 38.339 23.0452 38.2791 22.9466 38.2382C22.848 38.1974 22.7423 38.1764 22.6355 38.1764C22.5288 38.1764 22.4231 38.1974 22.3244 38.2382C22.2258 38.2791 22.1357 38.339 22.0602 38.4144ZM33.4295 21.4149L35.2298 18.5681L43.0599 18.6245L42.3756 17.4033C42.3517 17.3599 41.7791 16.3476 40.7976 15.3645C39.4366 14.0056 37.4194 13.1179 35.3979 12.9905C33.7088 12.8853 31.2155 13.2372 28.9316 15.5212C25.7117 18.7405 26.3277 22.5086 26.6975 23.8751L24.6234 25.9503C24.5478 26.0257 24.4879 26.1153 24.447 26.2139C24.4061 26.3126 24.3851 26.4183 24.3851 26.5251C24.3851 26.6318 24.4061 26.7376 24.447 26.8362C24.4879 26.9348 24.5478 27.0244 24.6234 27.0998C24.6989 27.1755 24.7886 27.2355 24.8873 27.2765C24.986 27.3174 25.0918 27.3385 25.1987 27.3385C25.3056 27.3385 25.4114 27.3174 25.5102 27.2765C25.6089 27.2355 25.6986 27.1755 25.774 27.0998L28.5731 24.3018L28.3806 23.8068C28.3644 23.7677 26.8949 19.8576 30.0833 16.6707C32.0414 14.7111 36.4363 13.3061 39.6459 16.5151C39.7994 16.6686 39.942 16.8242 40.0716 16.9749L34.3405 16.9327L31.5111 21.4024L34.3579 26.0294L40.0634 26.1775C39.4041 27.2349 38.2035 28.7499 36.5079 29.29C35.1393 29.7265 33.6307 29.4472 32.0273 28.4604L31.4541 28.1057L30.4309 29.226C30.2854 29.3854 30.2092 29.596 30.219 29.8115C30.2288 30.027 30.3239 30.2298 30.4832 30.3753C30.6426 30.5208 30.8532 30.597 31.0687 30.5872C31.2842 30.5774 31.4871 30.4823 31.6325 30.323L31.761 30.1809C32.9366 30.8061 34.0873 31.119 35.2054 31.119C35.8182 31.119 36.42 31.0252 37.01 30.837C40.4181 29.7471 42.0855 25.8776 42.1543 25.7139L42.618 24.6153L35.2802 24.4255L33.429 21.4127L33.4295 21.4149Z" fill="#62BB46"/>
<path d="M13.3101 44.7989C13.8794 44.7989 14.3409 44.3374 14.3409 43.7681C14.3409 43.1988 13.8794 42.7373 13.3101 42.7373C12.7408 42.7373 12.2793 43.1988 12.2793 43.7681C12.2793 44.3374 12.7408 44.7989 13.3101 44.7989Z" fill="#62BB46"/>
<path d="M27.363 33.4839C27.2875 33.4084 27.1979 33.3484 27.0993 33.3075C27.0007 33.2667 26.8949 33.2456 26.7882 33.2456C26.6814 33.2456 26.5757 33.2667 26.4771 33.3075C26.3784 33.3484 26.2888 33.4084 26.2134 33.4839C26.1377 33.5593 26.0777 33.6489 26.0367 33.7475C25.9957 33.8461 25.9746 33.9519 25.9746 34.0587C25.9746 34.1655 25.9957 34.2713 26.0367 34.3699C26.0777 34.4686 26.1377 34.5581 26.2134 34.6335L36.1029 44.5241C36.2618 44.6836 36.4706 44.7627 36.6777 44.7627C36.8388 44.7633 36.9965 44.716 37.1306 44.6268C37.2647 44.5376 37.3693 44.4105 37.431 44.2617C37.4927 44.1129 37.5088 43.9491 37.4772 43.7912C37.4457 43.6332 37.3678 43.4882 37.2536 43.3746L27.363 33.4839Z" fill="#62BB46"/>
</g>
</g>
</g>
<defs>
<filter id="filter0_d_12778_12078" x="-4.94043" y="0.449951" width="60" height="60" filterUnits="userSpaceOnUse" color-interpolation-filters="sRGB">
<feFlood flood-opacity="0" result="BackgroundImageFix"/>
<feColorMatrix in="SourceAlpha" type="matrix" values="0 0 0 0 0 0 0 0 0 0 0 0 0 0 0 0 0 0 127 0" result="hardAlpha"/>
<feOffset/>
<feGaussianBlur stdDeviation="2.5"/>
<feComposite in2="hardAlpha" operator="out"/>
<feColorMatrix type="matrix" values="0 0 0 0 0 0 0 0 0 0 0 0 0 0 0 0 0 0 0.3 0"/>
<feBlend mode="normal" in2="BackgroundImageFix" result="effect1_dropShadow_12778_12078"/>
<feBlend mode="normal" in="SourceGraphic" in2="effect1_dropShadow_12778_12078" result="shape"/>
</filter>
<clipPath id="clip0_12778_12078">
<rect width="36" height="36" fill="white" transform="translate(7.05957 12.45)"/>
</clipPath>
<clipPath id="clip1_12778_12078">
<rect width="36" height="36" fill="white" transform="translate(7.05957 12.45)"/>
</clipPath>
</defs>
</svg>
